 <svg id="svg_logo" viewBox="0 0 221 34" version="1.1" xmlns="http://www.w3.org/2000/svg" xmlns:xlink="http://www.w3.org/1999/xlink">
    <path d="M1.96065 32.6919C1.65714 32.6919 1.39915 32.6008 1.1867 32.4187C0.974238 32.2063 0.868009 31.9331 0.868009 31.5993V1.96136C0.868009 1.6275 0.974238 1.35434 1.1867 1.14188C1.39915 0.929419 1.65714 0.82319 1.96065 0.82319H6.10358C6.43744 0.82319 6.69543 0.929419 6.87754 1.14188C7.08999 1.35434 7.19622 1.6275 7.19622 1.96136V13.7073H20.6266V1.96136C20.6266 1.6275 20.7328 1.35434 20.9453 1.14188C21.1578 0.929419 21.4157 0.82319 21.7192 0.82319H25.8167C26.1505 0.82319 26.4237 0.929419 26.6361 1.14188C26.8486 1.35434 26.9548 1.6275 26.9548 1.96136V31.5993C26.9548 31.9028 26.8486 32.1607 26.6361 32.3732C26.4237 32.5857 26.1505 32.6919 25.8167 32.6919H21.7192C21.4157 32.6919 21.1578 32.5857 20.9453 32.3732C20.7328 32.1607 20.6266 31.9028 20.6266 31.5993V19.3981H7.19622V31.5993C7.19622 31.9028 7.08999 32.1607 6.87754 32.3732C6.69543 32.5857 6.43744 32.6919 6.10358 32.6919H1.96065ZM35.1276 32.6919C34.8241 32.6919 34.5661 32.5857 34.3536 32.3732C34.1412 32.1607 34.0349 31.9028 34.0349 31.5993V1.96136C34.0349 1.6275 34.1412 1.35434 34.3536 1.14188C34.5661 0.929419 34.8241 0.82319 35.1276 0.82319H48.3303C50.7888 0.82319 52.7919 1.20258 54.3399 1.96136C55.8878 2.68979 57.0259 3.70655 57.7544 5.01165C58.5131 6.31675 58.8925 7.83431 58.8925 9.56432C58.8925 10.7177 58.6801 11.7344 58.2552 12.6146C57.8606 13.4644 57.3598 14.1625 56.7528 14.7088C56.1761 15.2552 55.5994 15.6801 55.0228 15.9836C56.2064 16.5299 57.2536 17.4404 58.1641 18.7152C59.0746 19.9899 59.5299 21.5075 59.5299 23.2679C59.5299 25.0889 59.1202 26.7127 58.3007 28.1392C57.4812 29.5657 56.2672 30.6887 54.6585 31.5082C53.0499 32.2973 51.0619 32.6919 48.6945 32.6919H35.1276ZM40.3632 27.8661H47.9661C49.6051 27.8661 50.8495 27.426 51.6993 26.5458C52.5491 25.6353 52.9741 24.5426 52.9741 23.2679C52.9741 21.9324 52.534 20.8246 51.6538 19.9444C50.8039 19.0642 49.5747 18.6241 47.9661 18.6241H40.3632V27.8661ZM40.3632 13.8894H47.5108C49.1195 13.8894 50.3183 13.51 51.1075 12.7512C51.9269 11.9621 52.3367 10.9453 52.3367 9.7009C52.3367 8.42615 51.9269 7.43974 51.1075 6.74166C50.3183 6.01324 49.1195 5.64902 47.5108 5.64902H40.3632V13.8894ZM62.8879 32.6919C62.645 32.6919 62.4174 32.6008 62.205 32.4187C62.0228 32.2366 61.9318 32.009 61.9318 31.7358C61.9318 31.6144 61.9621 31.4778 62.0228 31.3261L72.9948 1.96136C73.0858 1.65785 73.2528 1.39986 73.4956 1.1874C73.7687 0.944594 74.133 0.82319 74.5882 0.82319H79.5506C80.0059 0.82319 80.3549 0.944594 80.5977 1.1874C80.8406 1.39986 81.0227 1.65785 81.1441 1.96136L92.116 31.3261C92.1464 31.4778 92.1615 31.6144 92.1615 31.7358C92.1615 32.009 92.0705 32.2366 91.8884 32.4187C91.7063 32.6008 91.4938 32.6919 91.251 32.6919H87.2902C86.8653 32.6919 86.5466 32.6008 86.3341 32.4187C86.152 32.2063 86.0306 32.009 85.9699 31.8269L83.8301 26.2726H70.3087L68.169 31.8269C68.1083 32.009 67.9717 32.2063 67.7592 32.4187C67.5771 32.6008 67.2736 32.6919 66.8487 32.6919H62.8879ZM71.9021 21.0371H82.2367L77.0467 6.9693L71.9021 21.0371ZM116.678 33.1472C113.855 33.1472 111.488 32.7374 109.576 31.9179C107.694 31.0681 106.252 29.9755 105.251 28.64C104.28 27.2742 103.764 25.8477 103.703 24.3605C103.703 24.0873 103.794 23.8597 103.976 23.6776C104.158 23.4955 104.386 23.4044 104.659 23.4044H108.711C109.105 23.4044 109.394 23.4955 109.576 23.6776C109.788 23.8294 109.97 24.0266 110.122 24.2695C110.304 24.8461 110.653 25.4228 111.169 25.9995C111.685 26.5458 112.383 27.0011 113.264 27.3653C114.174 27.7295 115.312 27.9116 116.678 27.9116C118.863 27.9116 120.487 27.5474 121.549 26.8189C122.642 26.0905 123.188 25.1041 123.188 23.8597C123.188 22.9795 122.9 22.2815 122.323 21.7655C121.747 21.2192 120.851 20.7335 119.637 20.3086C118.454 19.8534 116.875 19.3829 114.902 18.8973C112.626 18.351 110.714 17.6984 109.166 16.9396C107.649 16.1505 106.495 15.1641 105.706 13.9804C104.947 12.7967 104.568 11.2943 104.568 9.47327C104.568 7.7129 105.038 6.14982 105.979 4.78401C106.95 3.41821 108.316 2.34075 110.077 1.55162C111.867 0.762488 113.992 0.367923 116.45 0.367923C118.423 0.367923 120.168 0.641083 121.686 1.1874C123.204 1.70337 124.463 2.40145 125.465 3.28163C126.466 4.13147 127.225 5.05718 127.741 6.05876C128.287 7.03 128.576 7.98606 128.606 8.92695C128.606 9.16976 128.515 9.39739 128.333 9.60985C128.181 9.79195 127.953 9.88301 127.65 9.88301H123.416C123.173 9.88301 122.93 9.82231 122.688 9.7009C122.445 9.5795 122.247 9.35186 122.096 9.018C121.914 8.07712 121.322 7.27281 120.32 6.60508C119.319 5.93736 118.029 5.6035 116.45 5.6035C114.811 5.6035 113.491 5.90701 112.49 6.51403C111.488 7.12105 110.987 8.06194 110.987 9.33669C110.987 10.1865 111.23 10.8998 111.716 11.4764C112.232 12.0228 113.036 12.5084 114.129 12.9333C115.252 13.3582 116.724 13.8135 118.545 14.2991C121.124 14.8758 123.234 15.5435 124.873 16.3023C126.512 17.0611 127.711 18.0323 128.469 19.216C129.228 20.3693 129.608 21.8414 129.608 23.6321C129.608 25.6353 129.061 27.3501 127.969 28.7766C126.906 30.1727 125.404 31.2502 123.462 32.009C121.519 32.7678 119.258 33.1472 116.678 33.1472ZM144.977 32.6919C143.156 32.6919 141.624 32.3732 140.379 31.7358C139.135 31.0985 138.209 30.1576 137.602 28.9132C136.995 27.6384 136.692 26.0602 136.692 24.1784V13.8438H133.095C132.792 13.8438 132.534 13.7376 132.321 13.5251C132.109 13.3127 132.002 13.0547 132.002 12.7512V10.1106C132.002 9.80713 132.109 9.54914 132.321 9.33669C132.534 9.12423 132.792 9.018 133.095 9.018H136.692V1.46056C136.692 1.15705 136.783 0.899068 136.965 0.686611C137.177 0.474152 137.45 0.367923 137.784 0.367923H141.472C141.775 0.367923 142.033 0.474152 142.246 0.686611C142.458 0.899068 142.565 1.15705 142.565 1.46056V9.018H148.255C148.559 9.018 148.817 9.12423 149.029 9.33669C149.242 9.54914 149.348 9.80713 149.348 10.1106V12.7512C149.348 13.0547 149.242 13.3127 149.029 13.5251C148.817 13.7376 148.559 13.8438 148.255 13.8438H142.565V23.7231C142.565 24.9675 142.777 25.9388 143.202 26.6368C143.657 27.3349 144.431 27.684 145.524 27.684H148.665C148.969 27.684 149.227 27.7902 149.439 28.0026C149.652 28.2151 149.758 28.4731 149.758 28.7766V31.5993C149.758 31.9028 149.652 32.1607 149.439 32.3732C149.227 32.5857 148.969 32.6919 148.665 32.6919H144.977ZM164.268 33.1472C161.84 33.1472 159.791 32.7222 158.122 31.8724C156.483 31.0226 155.223 29.8237 154.343 28.2758C153.493 26.7279 153.007 24.922 152.886 22.8581C152.856 22.3118 152.84 21.6441 152.84 20.8549C152.84 20.0658 152.856 19.3981 152.886 18.8518C153.007 16.7575 153.508 14.9516 154.388 13.4341C155.299 11.8862 156.574 10.6873 158.213 9.83748C159.882 8.98765 161.9 8.56273 164.268 8.56273C166.635 8.56273 168.638 8.98765 170.277 9.83748C171.947 10.6873 173.221 11.8862 174.101 13.4341C175.012 14.9516 175.528 16.7575 175.649 18.8518C175.68 19.3981 175.695 20.0658 175.695 20.8549C175.695 21.6441 175.68 22.3118 175.649 22.8581C175.528 24.922 175.027 26.7279 174.147 28.2758C173.297 29.8237 172.038 31.0226 170.368 31.8724C168.729 32.7222 166.696 33.1472 164.268 33.1472ZM164.268 28.64C165.876 28.64 167.121 28.1392 168.001 27.1376C168.881 26.1057 169.367 24.6033 169.458 22.6305C169.488 22.1752 169.503 21.5834 169.503 20.8549C169.503 20.1265 169.488 19.5347 169.458 19.0794C169.367 17.1369 168.881 15.6497 168.001 14.6178C167.121 13.5858 165.876 13.0699 164.268 13.0699C162.659 13.0699 161.415 13.5858 160.534 14.6178C159.654 15.6497 159.169 17.1369 159.078 19.0794C159.047 19.5347 159.032 20.1265 159.032 20.8549C159.032 21.5834 159.047 22.1752 159.078 22.6305C159.169 24.6033 159.654 26.1057 160.534 27.1376C161.415 28.1392 162.659 28.64 164.268 28.64ZM181.832 32.6919C181.528 32.6919 181.27 32.5857 181.058 32.3732C180.845 32.1607 180.739 31.9028 180.739 31.5993V10.1562C180.739 9.8223 180.845 9.54914 181.058 9.33669C181.27 9.12423 181.528 9.018 181.832 9.018H185.519C185.823 9.018 186.081 9.12423 186.293 9.33669C186.536 9.54914 186.658 9.8223 186.658 10.1562V12.0228C187.356 11.0515 188.251 10.3079 189.344 9.79195C190.467 9.27598 191.757 9.018 193.213 9.018H195.08C195.414 9.018 195.672 9.12423 195.854 9.33669C196.066 9.54914 196.173 9.80713 196.173 10.1106V13.3886C196.173 13.6921 196.066 13.9501 195.854 14.1625C195.672 14.375 195.414 14.4812 195.08 14.4812H191.529C190.072 14.4812 188.934 14.8909 188.114 15.7104C187.325 16.5299 186.931 17.6529 186.931 19.0794V31.5993C186.931 31.9028 186.824 32.1607 186.612 32.3732C186.4 32.5857 186.126 32.6919 185.793 32.6919H181.832ZM209.61 33.1472C206.241 33.1472 203.57 32.1759 201.597 30.2335C199.625 28.291 198.562 25.529 198.411 21.9476C198.38 21.6441 198.365 21.2647 198.365 20.8094C198.365 20.3238 198.38 19.9444 198.411 19.6713C198.532 17.3949 199.048 15.4221 199.958 13.7528C200.899 12.0835 202.189 10.8087 203.828 9.92854C205.467 9.018 207.395 8.56273 209.61 8.56273C212.069 8.56273 214.132 9.0787 215.802 10.1106C217.471 11.1122 218.731 12.5236 219.58 14.3446C220.43 16.1353 220.855 18.2144 220.855 20.5818V21.5378C220.855 21.8414 220.749 22.0993 220.537 22.3118C220.324 22.5243 220.051 22.6305 219.717 22.6305H204.602C204.602 22.6305 204.602 22.676 204.602 22.7671C204.602 22.8581 204.602 22.934 204.602 22.9947C204.633 24.057 204.83 25.0434 205.194 25.9539C205.589 26.8341 206.15 27.5474 206.879 28.0937C207.637 28.64 208.533 28.9132 209.565 28.9132C210.414 28.9132 211.128 28.7918 211.704 28.549C212.281 28.2758 212.751 27.9723 213.116 27.6384C213.48 27.3046 213.738 27.0314 213.89 26.8189C214.163 26.4547 214.375 26.2423 214.527 26.1816C214.709 26.0905 214.967 26.045 215.301 26.045H219.216C219.52 26.045 219.763 26.136 219.945 26.3182C220.157 26.5003 220.248 26.7279 220.218 27.0011C220.188 27.4867 219.93 28.0785 219.444 28.7766C218.989 29.4747 218.321 30.1576 217.441 30.8253C216.561 31.493 215.453 32.0545 214.117 32.5098C212.812 32.9347 211.31 33.1472 209.61 33.1472ZM204.602 18.8062H214.664V18.6697C214.664 17.486 214.466 16.454 214.072 15.5738C213.677 14.6937 213.101 13.9956 212.342 13.4796C211.583 12.9636 210.672 12.7057 209.61 12.7057C208.548 12.7057 207.637 12.9636 206.879 13.4796C206.12 13.9956 205.543 14.6937 205.149 15.5738C204.784 16.454 204.602 17.486 204.602 18.6697V18.8062Z"/>
  </svg>