<svg width="330" height="23" viewBox="0 0 330 23" fill="none" xmlns="http://www.w3.org/2000/svg">
<rect y="10.8281" width="303.012" height="1.14183" fill="#666666"/>
<rect y="9.01562" width="251.207" height="4.76585" fill="#5C5B8A"/>
<g clip-path="url(#clip0_2098_16604)">
<g clip-path="url(#clip1_2098_16604)">
<path d="M326.945 12.6193L326.407 10.4675C326.554 10.4363 326.664 10.3058 326.664 10.1495V9.80257C326.664 9.04931 326.051 8.4365 325.298 8.4365H322.848V7.72093C322.848 7.35026 322.546 7.04873 322.176 7.04873H317.62L320.388 5.94127C320.555 5.87457 320.636 5.68526 320.57 5.51847C320.503 5.35172 320.314 5.27053 320.147 5.33727L317.88 6.24402C318.571 5.80081 319.254 5.31301 319.514 4.97188C320.021 4.30775 319.892 3.35536 319.228 2.84881C318.564 2.34223 317.612 2.47056 317.105 3.13469C316.735 3.62001 316.247 4.98368 315.931 5.94464C315.615 4.98377 315.126 3.62001 314.756 3.13469C314.25 2.47056 313.297 2.34231 312.633 2.84881C311.969 3.35532 311.841 4.30771 312.347 4.97188C312.608 5.31305 313.291 5.80081 313.982 6.24402L311.715 5.33727C311.548 5.27045 311.359 5.35167 311.292 5.51847C311.225 5.68526 311.306 5.87457 311.473 5.94127L314.242 7.04873H309.686C309.315 7.04873 309.014 7.35026 309.014 7.72093V13.6189C309.014 13.7985 309.159 13.9442 309.339 13.9442C309.519 13.9442 309.664 13.7986 309.664 13.6189V7.72093C309.664 7.70896 309.674 7.69927 309.686 7.69927H322.176C322.188 7.69927 322.197 7.70896 322.197 7.72093V13.619C322.197 13.7986 322.343 13.9443 322.523 13.9443C322.702 13.9443 322.848 13.7987 322.848 13.619V13.2503H326.685C326.685 13.2503 326.685 13.2504 326.686 13.2504C326.686 13.2504 326.686 13.2503 326.687 13.2503C327.159 13.2507 327.56 13.5606 327.697 13.9876H326.686C326.506 13.9876 326.361 14.1332 326.361 14.3128V15.0067C326.361 15.5687 326.818 16.0258 327.38 16.0258H327.748V17.4569H326.898C326.619 16.6503 325.852 16.0692 324.951 16.0692C324.051 16.0692 323.284 16.6502 323.004 17.4569H322.848V15.0066C322.848 14.827 322.702 14.6814 322.523 14.6814C322.343 14.6814 322.197 14.827 322.197 15.0066V17.4569H315.449C315.17 16.6502 314.403 16.0691 313.502 16.0691C312.602 16.0691 311.835 16.6502 311.556 17.4569H309.686C309.674 17.4569 309.664 17.4472 309.664 17.4352V16.7196H311.074C311.253 16.7196 311.399 16.574 311.399 16.3944C311.399 16.2147 311.253 16.0691 311.074 16.0691H307.951C307.772 16.0691 307.626 16.2147 307.626 16.3944C307.626 16.574 307.772 16.7196 307.951 16.7196H309.014V17.4352C309.014 17.8059 309.315 18.1074 309.686 18.1074H311.443C311.443 18.1146 311.442 18.1218 311.442 18.1291C311.442 19.2649 312.366 20.189 313.502 20.189C314.638 20.189 315.562 19.2649 315.562 18.1291C315.562 18.1218 315.562 18.1146 315.562 18.1074H322.892C322.892 18.1146 322.891 18.1218 322.891 18.1291C322.891 19.2649 323.815 20.189 324.951 20.189C326.087 20.189 327.011 19.2649 327.011 18.1291C327.011 18.1218 327.011 18.1146 327.011 18.1074H328.074C328.253 18.1074 328.399 17.9618 328.399 17.7822V14.3128C328.399 13.4561 327.767 12.7444 326.945 12.6193ZM314.641 5.88922C313.358 5.09193 312.977 4.72512 312.865 4.57735C312.576 4.19845 312.649 3.65507 313.028 3.36607C313.184 3.24695 313.368 3.18938 313.551 3.18938C313.811 3.18938 314.069 3.30647 314.239 3.52921C314.554 3.94175 315.047 5.33025 315.372 6.3308C315.152 6.20154 314.9 6.05025 314.641 5.88922ZM316.49 6.33076C316.815 5.33025 317.308 3.94179 317.623 3.52917C317.912 3.15027 318.455 3.07711 318.834 3.36607C319.213 3.65507 319.286 4.19845 318.997 4.57735C318.884 4.72508 318.504 5.09193 317.221 5.88918C316.962 6.05017 316.709 6.2015 316.49 6.33076ZM322.848 9.08696H325.298C325.693 9.08696 326.014 9.40796 326.014 9.80253V9.8242H322.848V9.08696ZM322.848 12.5997V10.4747H325.738L326.269 12.5997H322.848ZM313.502 19.5385C312.725 19.5385 312.093 18.9062 312.093 18.1291C312.093 17.3519 312.725 16.7196 313.502 16.7196C314.279 16.7196 314.912 17.3519 314.912 18.1291C314.912 18.9062 314.279 19.5385 313.502 19.5385ZM324.951 19.5385C324.174 19.5385 323.542 18.9062 323.542 18.1291C323.542 17.3519 324.174 16.7196 324.951 16.7196C325.728 16.7196 326.361 17.3519 326.361 18.1291C326.361 18.9062 325.728 19.5385 324.951 19.5385ZM327.748 15.3752H327.38C327.177 15.3752 327.011 15.2099 327.011 15.0066V14.638H327.748V15.3752H327.748Z" fill="black"/>
<path d="M313.502 17.457C313.132 17.457 312.83 17.7586 312.83 18.1292C312.83 18.4999 313.132 18.8014 313.502 18.8014C313.873 18.8014 314.174 18.4999 314.174 18.1292C314.174 17.7586 313.873 17.457 313.502 17.457Z" fill="black"/>
<path d="M324.951 17.4561C324.58 17.4561 324.278 17.7576 324.278 18.1283C324.278 18.4989 324.58 18.8005 324.951 18.8005C325.321 18.8005 325.623 18.4989 325.623 18.1283C325.623 17.7576 325.321 17.4561 324.951 17.4561Z" fill="black"/>
<path d="M321.135 16.0684H316.277C316.098 16.0684 315.952 16.214 315.952 16.3936C315.952 16.5733 316.098 16.7189 316.277 16.7189H321.135C321.314 16.7189 321.46 16.5733 321.46 16.3936C321.46 16.214 321.314 16.0684 321.135 16.0684Z" fill="black"/>
<path d="M312.808 14.6807H308.645C308.465 14.6807 308.319 14.8263 308.319 15.0059C308.319 15.1856 308.465 15.3312 308.645 15.3312H312.808C312.987 15.3312 313.133 15.1856 313.133 15.0059C313.133 14.8263 312.987 14.6807 312.808 14.6807Z" fill="black"/>
<path d="M312.809 9.82422H311.421C311.241 9.82422 311.096 9.96983 311.096 10.1495V12.925C311.096 13.1046 311.241 13.2503 311.421 13.2503C311.601 13.2503 311.746 13.1046 311.746 12.925V11.8625H312.462C312.641 11.8625 312.787 11.7169 312.787 11.5372C312.787 11.3576 312.641 11.212 312.462 11.212H311.746V10.4748H312.809C312.988 10.4748 313.134 10.3291 313.134 10.1495C313.134 9.96987 312.988 9.82422 312.809 9.82422Z" fill="black"/>
<path d="M315.368 12.015C315.693 11.8018 315.909 11.4341 315.909 11.0168C315.909 10.3592 315.374 9.82422 314.716 9.82422H313.849C313.669 9.82422 313.523 9.96983 313.523 10.1495V12.925C313.523 13.1046 313.669 13.2503 313.849 13.2503C314.028 13.2503 314.174 13.1046 314.174 12.925V12.2094H314.715L315.313 13.1054C315.375 13.1994 315.479 13.2503 315.584 13.2503C315.646 13.2503 315.708 13.2326 315.764 13.1956C315.913 13.096 315.954 12.894 315.854 12.7446L315.368 12.015ZM314.716 11.5589H314.174V10.4748H314.716C315.015 10.4748 315.258 10.7179 315.258 11.0168C315.258 11.3158 315.015 11.5589 314.716 11.5589Z" fill="black"/>
<path d="M318.012 12.5998H316.949V11.8614C316.957 11.8619 316.964 11.8625 316.971 11.8625H317.665C317.845 11.8625 317.99 11.7169 317.99 11.5373C317.99 11.3576 317.845 11.212 317.665 11.212H316.971C316.964 11.212 316.957 11.2126 316.949 11.2131V10.4748H318.012C318.191 10.4748 318.337 10.3291 318.337 10.1495C318.337 9.96987 318.192 9.82422 318.012 9.82422H316.624C316.444 9.82422 316.299 9.96983 316.299 10.1495V12.925C316.299 13.1046 316.444 13.2503 316.624 13.2503H318.012C318.191 13.2503 318.337 13.1046 318.337 12.925C318.337 12.7453 318.191 12.5998 318.012 12.5998Z" fill="black"/>
<path d="M320.441 12.5998H319.378V11.8625H319.747C319.926 11.8625 320.072 11.7169 320.072 11.5373C320.072 11.3576 319.926 11.212 319.747 11.212H319.378V10.4748H320.441C320.62 10.4748 320.766 10.3291 320.766 10.1495C320.766 9.96987 320.62 9.82422 320.441 9.82422H319.053C318.873 9.82422 318.728 9.96983 318.728 10.1495V12.925C318.728 13.1046 318.873 13.2503 319.053 13.2503H320.441C320.62 13.2503 320.766 13.1046 320.766 12.925C320.766 12.7453 320.62 12.5998 320.441 12.5998Z" fill="black"/>
</g>
</g>
<defs>
<clipPath id="clip0_2098_16604">
<rect width="22.0713" height="22.0713" fill="white" transform="translate(307.012 0.363281)"/>
</clipPath>
<clipPath id="clip1_2098_16604">
<rect width="20.773" height="20.773" fill="white" transform="translate(307.625 0.976562)"/>
</clipPath>
</defs>
</svg>
